<svg width="135" height="40" viewBox="0 0 135 40" fill="none" xmlns="http://www.w3.org/2000/svg">
<path d="M130 0H5C2.23858 0 0 2.23858 0 5V35C0 37.7614 2.23858 40 5 40H130C132.761 40 135 37.7614 135 35V5C135 2.23858 132.761 0 130 0Z" fill="white"/>
<path d="M47.418 10.2429C47.418 11.0809 47.17 11.7479 46.673 12.2459C46.109 12.8379 45.373 13.1339 44.469 13.1339C43.603 13.1339 42.867 12.8339 42.261 12.2339C41.655 11.6329 41.352 10.8889 41.352 10.0009C41.352 9.11294 41.655 8.36794 42.261 7.76794C42.866 7.16694 43.603 6.86694 44.469 6.86694C44.899 6.86694 45.31 6.95094 45.701 7.11794C46.092 7.28594 46.405 7.50894 46.639 7.78794L46.112 8.31594C45.715 7.84094 45.168 7.60394 44.469 7.60394C43.837 7.60394 43.291 7.82594 42.83 8.26994C42.369 8.71394 42.139 9.29094 42.139 9.99994C42.139 10.7089 42.369 11.2859 42.83 11.7299C43.291 12.1739 43.837 12.3959 44.469 12.3959C45.139 12.3959 45.698 12.1729 46.145 11.7259C46.435 11.4349 46.603 11.0299 46.648 10.5109H44.469V9.78994H47.376C47.404 9.94694 47.418 10.0969 47.418 10.2429Z" fill="black" stroke="white" stroke-width="0.2" stroke-miterlimit="10"/>
<path d="M52.028 7.73702H49.296V9.63902H51.76V10.36H49.296V12.262H52.028V12.999H48.525V6.99902H52.028V7.73702Z" fill="black" stroke="white" stroke-width="0.2" stroke-miterlimit="10"/>
<path d="M55.279 13H54.508V7.737H52.832V7H56.955V7.737H55.279V13Z" fill="black" stroke="white" stroke-width="0.2" stroke-miterlimit="10"/>
<path d="M59.938 13V7H60.708V13H59.938Z" fill="black" stroke="white" stroke-width="0.2" stroke-miterlimit="10"/>
<path d="M64.128 13H63.357V7.737H61.681V7H65.804V7.737H64.128V13Z" fill="black" stroke="white" stroke-width="0.2" stroke-miterlimit="10"/>
<path d="M73.6089 12.225C73.0189 12.832 72.2859 13.134 71.4089 13.134C70.5319 13.134 69.7989 12.831 69.2099 12.225C68.6199 11.619 68.3259 10.877 68.3259 9.99999C68.3259 9.12299 68.6199 8.38099 69.2099 7.77499C69.7989 7.16799 70.5319 6.86499 71.4089 6.86499C72.2809 6.86499 73.0119 7.16999 73.6049 7.77899C74.1969 8.38799 74.4929 9.12799 74.4929 9.99999C74.4929 10.877 74.1979 11.619 73.6089 12.225ZM69.7789 11.722C70.2229 12.172 70.7659 12.396 71.4089 12.396C72.0519 12.396 72.5949 12.171 73.0389 11.722C73.4829 11.272 73.7059 10.698 73.7059 9.99999C73.7059 9.30199 73.4829 8.72699 73.0389 8.27799C72.5959 7.82799 72.0519 7.60399 71.4089 7.60399C70.7659 7.60399 70.2229 7.82899 69.7789 8.27799C69.3359 8.72799 69.1129 9.30199 69.1129 9.99999C69.1129 10.698 69.3359 11.273 69.7789 11.722Z" fill="black" stroke="white" stroke-width="0.2" stroke-miterlimit="10"/>
<path d="M75.575 13V7H76.514L79.43 11.667H79.463L79.43 10.511V7H80.201V13H79.396L76.345 8.106H76.312L76.345 9.262V12.999H75.574L75.575 13Z" fill="black" stroke="white" stroke-width="0.2" stroke-miterlimit="10"/>
<path d="M68.136 21.752C65.784 21.752 63.867 23.54 63.867 26.005C63.867 28.454 65.784 30.258 68.136 30.258C70.488 30.258 72.405 28.454 72.405 26.005C72.405 23.54 70.488 21.752 68.136 21.752ZM68.136 28.582C66.847 28.582 65.736 27.519 65.736 26.004C65.736 24.473 66.848 23.426 68.136 23.426C69.424 23.426 70.536 24.473 70.536 26.004C70.536 27.518 69.424 28.582 68.136 28.582ZM58.823 21.752C56.471 21.752 54.554 23.54 54.554 26.005C54.554 28.454 56.471 30.258 58.823 30.258C61.175 30.258 63.092 28.454 63.092 26.005C63.092 23.54 61.175 21.752 58.823 21.752ZM58.823 28.582C57.534 28.582 56.422 27.519 56.422 26.004C56.422 24.473 57.534 23.426 58.823 23.426C60.112 23.426 61.223 24.473 61.223 26.004C61.223 27.518 60.111 28.582 58.823 28.582ZM47.744 23.057V24.861H52.062C51.933 25.876 51.595 26.617 51.079 27.133C50.451 27.761 49.468 28.454 47.744 28.454C45.086 28.454 43.008 26.311 43.008 23.653C43.008 20.995 45.086 18.852 47.744 18.852C49.178 18.852 50.225 19.416 50.998 20.141L52.271 18.868C51.192 17.837 49.758 17.048 47.744 17.048C44.103 17.048 41.042 20.012 41.042 23.653C41.042 27.294 44.103 30.258 47.744 30.258C49.71 30.258 51.192 29.614 52.352 28.405C53.544 27.213 53.915 25.537 53.915 24.184C53.915 23.765 53.883 23.379 53.818 23.056L47.744 23.057ZM93.052 24.458C92.698 23.508 91.618 21.751 89.411 21.751C87.22 21.751 85.4 23.475 85.4 26.004C85.4 28.388 87.204 30.257 89.621 30.257C91.57 30.257 92.698 29.065 93.165 28.372L91.715 27.405C91.232 28.114 90.571 28.581 89.621 28.581C88.671 28.581 87.994 28.146 87.559 27.292L93.246 24.94L93.053 24.457L93.052 24.458ZM87.252 25.876C87.204 24.233 88.525 23.395 89.475 23.395C90.216 23.395 90.844 23.765 91.054 24.297L87.252 25.876ZM82.629 30H84.498V17.498H82.629V30ZM79.567 22.702H79.503C79.084 22.203 78.279 21.751 77.264 21.751C75.137 21.751 73.188 23.62 73.188 26.02C73.188 28.404 75.137 30.257 77.264 30.257C78.279 30.257 79.084 29.806 79.503 29.29H79.567V29.902C79.567 31.529 78.697 32.399 77.295 32.399C76.151 32.399 75.442 31.577 75.152 30.885L73.525 31.562C73.992 32.69 75.233 34.075 77.295 34.075C79.486 34.075 81.339 32.786 81.339 29.645V22.009H79.567V22.702ZM77.425 28.582C76.136 28.582 75.057 27.503 75.057 26.02C75.057 24.522 76.136 23.426 77.425 23.426C78.698 23.426 79.697 24.522 79.697 26.02C79.697 27.502 78.698 28.582 77.425 28.582ZM101.806 17.499H97.335V30H99.201V25.264H101.806C103.874 25.264 105.907 23.767 105.907 21.381C105.907 18.995 103.874 17.499 101.806 17.499ZM101.854 23.524H99.2V19.239H101.854C103.249 19.239 104.041 20.394 104.041 21.382C104.041 22.351 103.249 23.525 101.854 23.525V23.524ZM113.386 21.729C112.035 21.729 110.636 22.324 110.057 23.643L111.714 24.335C112.068 23.643 112.727 23.418 113.419 23.418C114.384 23.418 115.365 23.997 115.381 25.026V25.155C115.043 24.962 114.32 24.672 113.435 24.672C111.65 24.672 109.832 25.653 109.832 27.487C109.832 29.16 111.295 30.237 112.936 30.237C114.19 30.237 114.882 29.674 115.316 29.015H115.38V29.98H117.181V25.187C117.181 22.967 115.525 21.729 113.386 21.729ZM113.161 28.58C112.55 28.58 111.697 28.275 111.697 27.519C111.697 26.554 112.758 26.184 113.675 26.184C114.495 26.184 114.881 26.361 115.38 26.602C115.235 27.76 114.238 28.58 113.161 28.58ZM123.743 22.002L121.604 27.422H121.54L119.321 22.002H117.311L120.64 29.577L118.742 33.791H120.688L125.819 22.002H123.744H123.743ZM106.936 30H108.802V17.499H106.936V30Z" fill="black"/>
<path d="M20.717 19.424L10.07 30.724C10.07 30.724 10.071 30.729 10.072 30.731C10.399 31.958 11.519 32.861 12.849 32.861C13.38 32.861 13.88 32.717 14.308 32.465L14.342 32.445L26.326 25.53L20.717 19.424Z" fill="#EA4335"/>
<path d="M31.488 17.5L31.478 17.493L26.304 14.493L20.475 19.68L26.324 25.528L31.47 22.559C32.372 22.072 32.985 21.121 32.985 20.024C32.985 18.934 32.381 17.988 31.487 17.499L31.488 17.5Z" fill="#FBBC04"/>
<path d="M10.07 9.27698C10.006 9.51298 9.97198 9.76098 9.97198 10.017V29.985C9.97198 30.241 10.005 30.489 10.07 30.724L21.083 19.713L10.07 9.27698Z" fill="#4285F4"/>
<path d="M20.796 20.001L26.306 14.492L14.336 7.55199C13.901 7.29099 13.393 7.14099 12.85 7.14099C11.52 7.14099 10.398 8.04599 10.071 9.27499V9.27799L20.797 20.002L20.796 20.001Z" fill="#34A853"/>
</svg>
