<?xml version="1.0" encoding="UTF-8"?>
<svg width="24px" height="24px" viewBox="0 0 24 24" version="1.1" xmlns="http://www.w3.org/2000/svg" xmlns:xlink="http://www.w3.org/1999/xlink">
    <!-- Generator: Sketch 61.2 (89653) - https://sketch.com -->
    <title>github</title>
    <desc>Created with Sketch.</desc>
    <g id="Icons" stroke="none" stroke-width="1" fill="none" fill-rule="evenodd">
        <g id="Github" fill="#FFFFFF">
            <path d="M9.3958207,21.8 C9.39386829,21.3805563 9.39099945,20.9776404 9.38721417,20.5912524 C9.38135694,20.0116703 9.37860763,19.5060507 9.37860763,19.0746325 L8.98611377,19.1424464 C8.73586681,19.1882327 8.42017432,19.2076337 8.03903631,19.2021417 C7.65807759,19.1968288 7.26259535,19.1569524 6.85312749,19.0828107 C6.44348033,19.0093258 6.06246185,18.8388956 5.70977322,18.5718783 C5.35726388,18.304861 5.10701692,17.9553448 4.9590921,17.5238669 L4.78845559,17.1316685 C4.67471784,16.870561 4.49565409,16.5805014 4.25102529,16.262564 C4.00639648,15.9443281 3.75901836,15.7285891 3.5087714,15.6149889 L3.38929596,15.5295648 C3.30968551,15.4727946 3.23581275,15.404324 3.16749838,15.3248695 C3.09924378,15.245415 3.04814247,15.1659008 3.01401517,15.0862672 C2.9798281,15.006574 3.00815795,14.9412076 3.09930354,14.8899293 C3.19044914,14.838651 3.35516866,14.813758 3.59417931,14.813758 L3.9353328,14.8646781 C4.16286807,14.9102257 4.44431372,15.0462714 4.78002836,15.2736509 C5.11556369,15.5008514 5.39139119,15.7962239 5.60757061,16.1596492 C5.86935272,16.625631 6.18474637,16.9806989 6.55464808,17.225032 C6.92425094,17.469365 7.29690196,17.5913226 7.67224252,17.5913226 C8.04758307,17.5913226 8.37176256,17.5629076 8.64490052,17.5063761 C8.91773963,17.4495462 9.17372428,17.3641221 9.41273493,17.2505816 C9.51511684,16.4889884 9.79387295,15.9039143 10.2487642,15.4949416 C9.60040521,15.4268889 9.01749176,15.324392 8.499725,15.1881075 C7.98225708,15.0516439 7.44751632,14.8301742 6.89586133,14.5231014 C6.3439075,14.2164464 5.88602788,13.8356498 5.52210294,13.3813682 C5.15811822,12.9268479 4.85939974,12.3301333 4.62636584,11.5917616 C4.39321242,10.8530914 4.27660582,10.0010001 4.27660582,9.03524882 C4.27660582,7.6601666 4.72605821,6.49001849 5.62478368,5.52414784 C5.20378067,4.4903439 5.24352613,3.33141851 5.74413959,2.04749108 C6.07405677,1.94511357 6.56331438,2.02194147 7.21167336,2.27749724 C7.86015187,2.53317239 8.33494572,2.7521946 8.63653305,2.93378784 C8.93812039,3.11532137 9.17976081,3.26915627 9.36181294,3.39391954 C10.4199984,3.09860668 11.5120123,2.9509204 12.6381535,2.9509204 C13.7642947,2.9509204 14.8565477,3.09860668 15.9147929,3.39391954 L16.5632116,2.98506613 C17.0066275,2.71225842 17.5302515,2.46225432 18.1328285,2.23499415 C18.7357641,2.00785337 19.1968114,1.94529265 19.5154922,2.04767017 C20.0272225,3.33165729 20.0728251,4.49052298 19.6517026,5.52432693 C20.5503683,6.49019757 21,7.66064416 21,9.0354279 C21,10.0011792 20.882975,10.8559568 20.6501802,11.600298 C20.4170866,12.3447586 20.1157981,12.9408763 19.7461952,13.3899047 C19.3761739,13.8388734 18.9153657,14.2166852 18.3637107,14.5232805 C17.8119362,14.8301145 17.2770161,15.0515842 16.7595482,15.1880478 C16.2418412,15.3245113 15.6589278,15.4270679 15.0105688,15.49524 C15.6019095,16.0063516 15.8976396,16.8131341 15.8976396,17.9152295 L15.8976396,21.8 L9.3958207,21.8 Z" id="Shape"></path>
        </g>
    </g>
</svg>