<?xml version="1.0" encoding="UTF-8"?>
<svg width="24px" height="24px" viewBox="0 0 24 24" version="1.1" xmlns="http://www.w3.org/2000/svg" xmlns:xlink="http://www.w3.org/1999/xlink">
    <!-- Generator: Sketch 63.1 (92452) - https://sketch.com -->
    <title>Instagram</title>
    <desc>Created with Sketch.</desc>
    <g id="Instagram" stroke="none" stroke-width="1" fill="none" fill-rule="evenodd">
        <path d="M12.0008333,2 C9.285,2 8.94416667,2.011875 7.8775,2.06041667 C6.81291667,2.10916667 6.08625,2.27770833 5.45041667,2.525 C4.79270833,2.78041667 4.23479167,3.12208333 3.67895833,3.678125 C3.12270833,4.23395833 2.78104167,4.791875 2.52479167,5.449375 C2.276875,6.08541667 2.108125,6.81229167 2.06020833,7.87645833 C2.0125,8.943125 2,9.28416667 2,12 C2,14.7158333 2.01208333,15.055625 2.06041667,16.1222917 C2.109375,17.186875 2.27791667,17.9135417 2.525,18.549375 C2.780625,19.2070833 3.12229167,19.765 3.67833333,20.3208333 C4.23395833,20.8770833 4.791875,21.2195833 5.44916667,21.475 C6.08541667,21.7222917 6.81229167,21.8908333 7.87666667,21.9395833 C8.94333333,21.988125 9.28395833,22 11.9995833,22 C14.715625,22 15.0554167,21.988125 16.1220833,21.9395833 C17.1866667,21.8908333 17.9141667,21.7222917 18.5504167,21.475 C19.2079167,21.2195833 19.765,20.8770833 20.320625,20.3208333 C20.876875,19.765 21.2185417,19.2070833 21.4747917,18.5495833 C21.720625,17.9135417 21.889375,17.1866667 21.939375,16.1225 C21.9872917,15.0558333 21.9997917,14.7158333 21.9997917,12 C21.9997917,9.28416667 21.9872917,8.94333333 21.939375,7.87666667 C21.889375,6.81208333 21.720625,6.08541667 21.4747917,5.44958333 C21.2185417,4.791875 20.876875,4.23395833 20.320625,3.678125 C19.764375,3.121875 19.208125,2.78020833 18.5497917,2.525 C17.9122917,2.27770833 17.1852083,2.10916667 16.120625,2.06041667 C15.0539583,2.011875 14.714375,2 11.9977083,2 L12.0008333,2 Z M11.10375,3.80208333 C11.37,3.80166667 11.6670833,3.80208333 12.0008333,3.80208333 C14.6708333,3.80208333 14.9872917,3.81166667 16.0416667,3.85958333 C17.0166667,3.90416667 17.5458333,4.06708333 17.8983333,4.20395833 C18.365,4.38520833 18.6977083,4.601875 19.0475,4.951875 C19.3975,5.301875 19.6141667,5.63520833 19.7958333,6.101875 C19.9327083,6.45395833 20.0958333,6.983125 20.1402083,7.958125 C20.188125,9.01229167 20.1985417,9.32895833 20.1985417,11.9977083 C20.1985417,14.6664583 20.188125,14.983125 20.1402083,16.0372917 C20.095625,17.0122917 19.9327083,17.5414583 19.7958333,17.8935417 C19.6145833,18.3602083 19.3975,18.6925 19.0475,19.0422917 C18.6975,19.3922917 18.3652083,19.6089583 17.8983333,19.7902083 C17.54625,19.9277083 17.0166667,20.0902083 16.0416667,20.1347917 C14.9875,20.1827083 14.6708333,20.193125 12.0008333,20.193125 C9.330625,20.193125 9.01416667,20.1827083 7.96,20.1347917 C6.985,20.0897917 6.45583333,19.926875 6.103125,19.79 C5.63645833,19.60875 5.303125,19.3920833 4.953125,19.0420833 C4.603125,18.6920833 4.38645833,18.3595833 4.20479167,17.8927083 C4.06791667,17.540625 3.90479167,17.0114583 3.86041667,16.0364583 C3.8125,14.9822917 3.80291667,14.665625 3.80291667,11.9952083 C3.80291667,9.32479167 3.8125,9.00979167 3.86041667,7.955625 C3.905,6.980625 4.06791667,6.45145833 4.20479167,6.09895833 C4.38604167,5.63229167 4.603125,5.29895833 4.953125,4.94895833 C5.303125,4.59895833 5.63645833,4.38229167 6.103125,4.200625 C6.455625,4.063125 6.985,3.900625 7.96,3.85583333 C8.8825,3.81416667 9.24,3.80166667 11.10375,3.79958333 L11.10375,3.80208333 Z M17.33875,5.4625 C16.67625,5.4625 16.13875,5.999375 16.13875,6.66208333 C16.13875,7.32458333 16.67625,7.86208333 17.33875,7.86208333 C18.00125,7.86208333 18.53875,7.32458333 18.53875,6.66208333 C18.53875,5.99958333 18.00125,5.46208333 17.33875,5.46208333 L17.33875,5.4625 Z M12.0008333,6.86458333 C9.16479167,6.86458333 6.86541667,9.16395833 6.86541667,12 C6.86541667,14.8360417 9.16479167,17.134375 12.0008333,17.134375 C14.836875,17.134375 17.1354167,14.8360417 17.1354167,12 C17.1354167,9.16395833 14.8366667,6.86458333 12.000625,6.86458333 L12.0008333,6.86458333 Z M12.0008333,8.66666667 C13.8416667,8.66666667 15.3341667,10.1589583 15.3341667,12 C15.3341667,13.8408333 13.8416667,15.3333333 12.0008333,15.3333333 C10.1597917,15.3333333 8.6675,13.8408333 8.6675,12 C8.6675,10.1589583 10.1597917,8.66666667 12.0008333,8.66666667 Z" fill="#FFFFFF"></path>
    </g>
</svg>