<?xml version="1.0" encoding="UTF-8"?>
<svg width="24px" height="24px" viewBox="0 0 24 24" version="1.1" xmlns="http://www.w3.org/2000/svg" xmlns:xlink="http://www.w3.org/1999/xlink">
    <title>Lock</title>
    <g id="Icons" stroke="none" stroke-width="1" fill="none" fill-rule="evenodd">
        <g id="Lock" fill="#FFFFFF">
            <path d="M12,3 C14.7614237,3 17,5.23857625 17,8 L17.0010742,10.9546352 C17.4298891,11.1192397 17.6748607,11.2712829 17.9136634,11.462177 C18.278744,11.7540152 18.5503281,12.1140624 18.7306421,12.5452702 L18.8023381,12.7313219 C18.8133582,12.7628597 18.8239144,12.7948226 18.8340073,12.8274516 L18.8890123,13.0331442 C18.9302284,13.2144262 18.9599043,13.424401 18.9781414,13.6931748 L18.9945418,14.0458538 L18.9945418,14.0458538 L19,14.4665406 L19,14.4665406 L19,16.5383049 L18.9945418,16.9589917 L18.9945418,16.9589917 L18.9781414,17.3116707 C18.9599043,17.5804445 18.9302284,17.7904193 18.8890123,17.9717013 L18.8340073,18.1773939 C18.8239144,18.2100229 18.8133582,18.2419859 18.8023381,18.2735236 L18.7306421,18.4595753 L18.7306421,18.4595753 C18.5503281,18.8907831 18.278744,19.2508303 17.9136634,19.5426685 L17.7544667,19.6627182 C17.5633886,19.7975399 17.3460327,19.9162217 17.0230422,20.0417263 L16.7184727,20.1515081 C16.6627825,20.1702621 16.6044738,20.1892892 16.5433152,20.2086564 L16.1403142,20.3294761 L16.1403142,20.3294761 L15.5,20.512423 C13.2124359,21.1660127 10.7875641,21.1660127 8.5,20.512423 L7.85968581,20.3294761 C7.63923508,20.2664902 7.44859783,20.20777 7.28152734,20.1515081 L6.9769578,20.0417263 C6.65396734,19.9162217 6.4366114,19.7975399 6.24553331,19.6627182 L6.08633659,19.5426685 L6.08633659,19.5426685 C5.72125602,19.2508303 5.44967188,18.8907831 5.26935787,18.4595753 L5.19766192,18.2735236 C5.18664176,18.2419859 5.17608564,18.2100229 5.16599275,18.1773939 L5.11098768,17.9717013 C5.0697716,17.7904193 5.04009571,17.5804445 5.02185859,17.3116707 L5.00545816,16.9589917 C5.00363769,16.8948657 5.00227315,16.827906 5.00136373,16.7578718 L5,14.4665406 C5,14.3136925 5.00181722,14.1741058 5.00545816,14.0458538 L5.02185859,13.6931748 C5.04009571,13.424401 5.0697716,13.2144262 5.11098768,13.0331442 L5.16599275,12.8274516 C5.17608564,12.7948226 5.18664176,12.7628597 5.19766192,12.7313219 L5.26935787,12.5452702 L5.26935787,12.5452702 C5.44967188,12.1140624 5.72125602,11.7540152 6.08633659,11.462177 C6.3253179,11.2711401 6.57047732,11.1190123 6.9998883,10.9542659 L7,8 L7.00461951,7.78311038 C7.11818189,5.12230671 9.3112453,3 12,3 Z M12,12.4924225 C10.8954305,12.4924225 10,13.387853 10,14.4924225 C10,15.2326749 10.4021661,15.8789964 10.9999275,16.2248162 L11,17.4924225 C11,18.0447073 11.4477153,18.4924225 12,18.4924225 C12.5128358,18.4924225 12.9355072,18.1063823 12.9932723,17.6090436 L13,17.4924225 L13.0010775,16.2242344 C13.5982846,15.8782718 14,15.23226 14,14.4924225 C14,13.387853 13.1045695,12.4924225 12,12.4924225 Z M12,5 C10.4514225,5 9.16930163,6.17654409 9.01671084,7.653944 L9.00416602,7.82569855 L8.99997816,8 L8.99997816,10.3604828 C10.9717298,9.88273191 13.029299,9.88281268 15.0010217,10.3607251 L15,8 C15,6.40231912 13.75108,5.09633912 12.1762728,5.00509269 L12,5 Z" id="Shape"></path>
        </g>
    </g>
</svg>