<?xml version="1.0" encoding="UTF-8"?>
<svg width="24px" height="24px" viewBox="0 0 24 24" version="1.1" xmlns="http://www.w3.org/2000/svg" xmlns:xlink="http://www.w3.org/1999/xlink">
    <title>Social/Tiktok/White</title>
    <g id="Social/Tiktok/White" stroke="none" stroke-width="1" fill="none" fill-rule="evenodd">
        <path d="M18.1755389,6.27728643 C18.0405536,6.20751971 17.9091457,6.13103891 17.7818085,6.04813121 C17.4115173,5.80333307 17.0720127,5.51488711 16.770609,5.18900744 C16.01648,4.32613385 15.7348274,3.4507609 15.6310826,2.83787483 L15.6352491,2.83787483 C15.5485867,2.32915023 15.5844183,2 15.5898347,2 L12.1550062,2 L12.1550062,15.2818368 C12.1550062,15.4601613 12.1550062,15.6364025 12.1475065,15.8105604 C12.1475065,15.832226 12.1454233,15.852225 12.1441734,15.8755572 C12.1441734,15.88514 12.1441734,15.8951395 12.1420901,15.905139 C12.1420901,15.9076389 12.1420901,15.9101388 12.1420901,15.9126387 C12.0685674,16.8803572 11.5184918,17.7481085 10.6746634,18.2275231 C10.2415783,18.4739088 9.75174956,18.6031512 9.25348437,18.6025044 C7.65314761,18.6025044 6.35612904,17.2975695 6.35612904,15.6859833 C6.35612904,14.0743971 7.65314761,12.7694623 9.25348437,12.7694623 C9.55642055,12.7691811 9.85749198,12.8168519 10.1455232,12.9107052 L10.1496896,9.41337984 C8.38192796,9.18503361 6.59924005,9.70654536 5.23326843,10.8516414 C4.64124191,11.3660327 4.1435228,11.9797923 3.76250854,12.6653008 C3.61751578,12.9152883 3.07045976,13.9198215 3.00421307,15.5501568 C2.96254848,16.4755272 3.24045127,17.4342294 3.37294466,17.8304596 L3.37294466,17.8387925 C3.45627383,18.0721142 3.77917437,18.8683244 4.3053981,19.5395409 C4.72972563,20.0779576 5.23105476,20.5509281 5.79324047,20.9432208 L5.79324047,20.9348879 L5.80157339,20.9432208 C7.46440703,22.0731644 9.30806498,21.9990014 9.30806498,21.9990014 C9.62721571,21.9860854 10.696329,21.9990014 11.910435,21.4236135 C13.2570345,20.7857287 14.0236629,19.8353595 14.0236629,19.8353595 C14.5134248,19.2675043 14.9028658,18.6203616 15.175272,17.921705 C15.4860898,17.1046625 15.5898347,16.1247114 15.5898347,15.7330643 L15.5898347,8.68674946 C15.6314992,8.71174821 16.1864715,9.07881322 16.1864715,9.07881322 C16.1864715,9.07881322 16.9860149,9.59128763 18.2334527,9.92502096 C19.128408,10.1625091 20.3341811,10.2125066 20.3341811,10.2125066 L20.3341811,6.80267687 C19.9117022,6.84850791 19.0538284,6.71518123 18.1755389,6.27728643 Z" id="Path" fill="#FFFFFF"></path>
    </g>
</svg>